# This file uses meters as units for non-parametric coordinates.

mtllib 00_PL_Track_Collision_Build.mtl
g default
v -170.000000 264.793125 2500.000000
v 170.000000 264.793125 2500.000000
v -170.000000 304.793125 2500.000000
v 170.000000 304.793125 2500.000000
v -170.000000 304.793125 -2500.000000
v 170.000000 304.793125 -2500.000000
v -170.000000 264.793125 -2500.000000
v 170.000000 264.793125 -2500.000000
v -170.000000 304.793125 -497.309814
v 170.000000 304.793125 -497.309814
v 170.000000 264.793125 -497.310059
v -170.000000 264.793125 -497.310059
v -170.000000 304.793125 783.191895
v 170.000000 304.793125 783.191895
v 170.000000 264.793125 783.191772
v -170.000000 264.793125 783.191772
vt 0.375000 0.000000
vt 0.625000 0.000000
vt 0.375000 0.250000
vt 0.625000 0.250000
vt 0.375000 0.500000
vt 0.625000 0.500000
vt 0.375000 0.750000
vt 0.625000 0.750000
vt 0.375000 1.000000
vt 0.625000 1.000000
vt 0.875000 0.000000
vt 0.875000 0.250000
vt 0.125000 0.000000
vt 0.125000 0.250000
vt 0.300067 0.324933
vt 0.699933 0.324933
vt 0.699933 0.425067
vt 0.300067 0.425067
vt 0.332080 0.292920
vt 0.667920 0.292920
vt 0.667920 0.457080
vt 0.332080 0.457080
vn 0.000000 0.000000 1.000000
vn 0.000000 0.000000 1.000000
vn 0.000000 0.000000 1.000000
vn 0.000000 0.000000 1.000000
vn 0.000000 1.000000 0.000000
vn 0.000000 1.000000 0.000000
vn 0.000000 1.000000 0.000000
vn 0.000000 1.000000 0.000000
vn 0.000000 0.000000 -1.000000
vn 0.000000 0.000000 -1.000000
vn 0.000000 0.000000 -1.000000
vn 0.000000 0.000000 -1.000000
vn 0.000000 -1.000000 0.000000
vn 0.000000 -1.000000 0.000000
vn 0.000000 -1.000000 0.000000
vn 0.000000 -1.000000 0.000000
vn 1.000000 -0.000000 0.000000
vn 1.000000 -0.000000 0.000000
vn 1.000000 -0.000000 0.000000
vn 1.000000 -0.000000 0.000000
vn -1.000000 -0.000000 0.000000
vn -1.000000 -0.000000 0.000000
vn -1.000000 -0.000000 0.000000
vn -1.000000 -0.000000 0.000000
vn 0.000000 1.000000 0.000000
vn 0.000000 1.000000 0.000000
vn 0.000000 1.000000 0.000000
vn 0.000000 1.000000 0.000000
vn 1.000000 0.000000 0.000000
vn 1.000000 0.000000 0.000000
vn 1.000000 0.000000 0.000000
vn 1.000000 0.000000 0.000000
vn 0.000000 -1.000000 0.000000
vn 0.000000 -1.000000 0.000000
vn 0.000000 -1.000000 0.000000
vn 0.000000 -1.000000 0.000000
vn -1.000000 0.000000 0.000000
vn -1.000000 0.000000 0.000000
vn -1.000000 0.000000 0.000000
vn -1.000000 0.000000 0.000000
vn 0.000000 0.000003 -1.000000
vn 0.000000 0.000003 -1.000000
vn 0.000000 0.000003 -1.000000
vn 0.000000 0.000003 -1.000000
vn 0.000000 -0.000006 1.000000
vn 0.000000 -0.000006 1.000000
vn 0.000000 -0.000006 1.000000
vn 0.000000 -0.000006 1.000000
s off
g pCube1142
usemtl initialShadingGroup
f 1/1/1 2/2/2 4/4/3 3/3/4
f 9/15/5 10/16/6 6/6/7 5/5/8
f 5/5/9 6/6/10 8/8/11 7/7/12
f 7/7/13 8/8/14 11/17/15 12/18/16
f 10/16/17 11/17/18 8/11/19 6/12/20
f 7/13/21 12/18/22 9/15/23 5/14/24
f 3/3/25 4/4/26 14/20/27 13/19/28
f 2/2/29 15/21/30 14/20/31 4/4/32
f 16/22/33 15/21/34 2/10/35 1/9/36
f 13/19/37 16/22/38 1/1/39 3/3/40
f 13/19/41 14/20/42 15/21/43 16/22/44
f 10/16/45 9/15/46 12/18/47 11/17/48
