# This file uses meters as units for non-parametric coordinates.

mtllib 00_PL_Track_Collision_Broken.mtl
g default
v -170.000000 264.793125 2500.000000
v 170.000000 264.793125 2500.000000
v -170.000000 304.793125 2500.000000
v 170.000000 304.793125 2500.000000
v -170.000000 304.793125 -2500.000000
v 170.000000 304.793125 -2500.000000
v -170.000000 264.793125 -2500.000000
v 170.000000 264.793125 -2500.000000
v -139.366272 245.791767 -356.590637
v 170.000000 166.296894 -302.337372
v 170.000000 126.296894 -302.337372
v -139.366272 205.791767 -356.590637
v -170.000000 242.291756 470.134491
v 170.000000 189.509228 497.792664
v 170.000000 149.509220 497.792664
v -170.000000 202.291752 470.134491
v -170.000000 304.793125 761.029602
v 170.000000 304.793125 761.029602
v 170.000015 264.793125 761.029663
v -170.000015 264.793125 761.029663
v -170.000000 264.793125 -512.736267
v 170.000000 264.793125 -512.736267
v 170.000000 304.793125 -512.736206
v -170.000000 304.793125 -512.736206
vt 0.375000 0.000000
vt 0.625000 0.000000
vt 0.375000 0.250000
vt 0.625000 0.250000
vt 0.375000 0.500000
vt 0.625000 0.500000
vt 0.375000 0.750000
vt 0.625000 0.750000
vt 0.375000 1.000000
vt 0.625000 1.000000
vt 0.875000 0.000000
vt 0.875000 0.250000
vt 0.125000 0.000000
vt 0.125000 0.250000
vt 0.306450 0.318550
vt 0.693550 0.318550
vt 0.693550 0.431450
vt 0.306450 0.431450
vt 0.321806 0.303194
vt 0.678194 0.303194
vt 0.678194 0.446806
vt 0.321806 0.446806
vt 0.288051 0.250000
vt 0.375000 0.336949
vt 0.625000 0.336949
vt 0.711948 0.250000
vt 0.625000 0.913051
vt 0.711948 0.000000
vt 0.288052 0.000000
vt 0.375000 0.913051
vt 0.224363 0.000000
vt 0.375000 0.849363
vt 0.625000 0.849363
vt 0.775637 0.000000
vt 0.625000 0.400637
vt 0.775637 0.250000
vt 0.224363 0.250000
vt 0.375000 0.400637
vn 0.000000 0.000000 1.000000
vn 0.000000 0.000000 1.000000
vn 0.000000 0.000000 1.000000
vn 0.000000 0.000000 1.000000
vn 0.068644 0.880651 0.468766
vn 0.068644 0.880651 0.468766
vn 0.006263 0.999065 0.042768
vn 0.005592 0.999255 0.038188
vn 0.000000 0.000000 -1.000000
vn 0.000000 0.000000 -1.000000
vn 0.000000 0.000000 -1.000000
vn 0.000000 0.000000 -1.000000
vn -0.005592 -0.999255 -0.038188
vn -0.006263 -0.999065 -0.042768
vn -0.068644 -0.880651 -0.468766
vn -0.068644 -0.880651 -0.468766
vn 1.000000 0.000000 0.000000
vn 1.000000 0.000000 0.000000
vn 1.000000 -0.000000 0.000000
vn 1.000000 -0.000000 0.000000
vn -0.999937 -0.000000 0.011246
vn -0.999852 -0.000000 0.017236
vn -0.981294 0.000000 0.192517
vn -0.981294 0.000000 0.192517
vn 0.012448 0.998952 -0.044047
vn 0.012448 0.998952 -0.044047
vn 0.086016 0.948664 -0.304365
vn 0.086016 0.948664 -0.304365
vn 1.000000 -0.000000 -0.000000
vn 1.000000 -0.000000 -0.000000
vn 1.000000 -0.000000 -0.000000
vn 1.000000 -0.000000 -0.000000
vn -0.086016 -0.948664 0.304365
vn -0.086016 -0.948664 0.304365
vn -0.012448 -0.998952 0.044047
vn -0.012448 -0.998952 0.044047
vn -1.000000 0.000000 -0.000000
vn -1.000000 0.000000 -0.000000
vn -1.000000 0.000000 -0.000000
vn -1.000000 0.000000 -0.000000
vn 0.000000 1.000000 0.000000
vn 0.000000 1.000000 0.000000
vn 1.000000 0.000000 0.000000
vn 1.000000 0.000000 0.000000
vn 0.000000 -1.000000 -0.000000
vn 0.000000 -1.000000 -0.000000
vn -1.000000 0.000000 0.000000
vn -1.000000 0.000000 0.000000
vn 0.000000 -1.000000 0.000000
vn 0.000000 -1.000000 0.000000
vn 1.000000 -0.000000 0.000000
vn 1.000000 -0.000000 0.000000
vn 0.000000 1.000000 0.000000
vn 0.000000 1.000000 0.000000
vn -1.000000 -0.000000 0.000000
vn -1.000000 -0.000000 0.000000
vn -0.172733 0.000000 0.984969
vn -0.172733 0.000000 0.984969
vn -0.172733 0.000000 0.984969
vn -0.172733 0.000000 0.984969
vn 0.081080 0.000000 -0.996708
vn 0.081080 0.000000 -0.996708
vn 0.081080 0.000000 -0.996708
vn 0.081080 0.000000 -0.996708
s off
g pCube1140
usemtl initialShadingGroup
f 1/1/1 2/2/2 4/4/3 3/3/4
s 1
f 9/15/5 10/16/6 23/35/7 24/38/8
s off
f 5/5/9 6/6/10 8/8/11 7/7/12
s 2
f 21/32/13 22/33/14 11/17/15 12/18/16
s 3
f 10/16/17 11/17/18 22/34/19 23/36/20
s 4
f 24/37/21 21/31/22 12/18/23 9/15/24
s 5
f 17/24/25 18/25/26 14/20/27 13/19/28
s 6
f 18/26/29 19/28/30 15/21/31 14/20/32
s 7
f 16/22/33 15/21/34 19/27/35 20/30/36
s 8
f 13/19/37 16/22/38 20/29/39 17/23/40
s 5
f 3/3/41 4/4/42 18/25/26 17/24/25
s 6
f 2/2/43 19/28/30 18/26/29 4/4/44
s 7
f 20/30/36 19/27/35 2/10/45 1/9/46
s 8
f 17/23/40 20/29/39 1/1/47 3/3/48
s 2
f 7/7/49 8/8/50 22/33/14 21/32/13
s 3
f 23/36/20 22/34/19 8/11/51 6/12/52
s 1
f 24/38/8 23/35/7 6/6/53 5/5/54
s 4
f 7/13/55 21/31/22 24/37/21 5/14/56
s off
f 10/16/57 9/15/58 12/18/59 11/17/60
f 13/19/61 14/20/62 15/21/63 16/22/64
