# This file uses meters as units for non-parametric coordinates.

mtllib 00_PL_Track_Collision_Ramp.mtl
g default
v -170.000000 95.022019 2500.000000
v 170.000000 95.022019 2500.000000
v -170.000000 135.022019 2500.000000
v 170.000000 135.022019 2500.000000
v -170.000000 399.598251 -2500.000000
v 170.000000 399.598251 -2500.000000
v -170.000000 359.598251 -2500.000000
v 170.000000 359.598251 -2500.000000
v -170.000015 135.022019 1564.105103
v 170.000015 135.022019 1564.105103
v 170.000000 95.022019 1564.104736
v -170.000000 95.022019 1564.104736
v -170.000000 359.598251 -1592.123657
v 170.000000 359.598251 -1592.123657
v 170.000000 399.598251 -1592.123535
v -170.000000 399.598251 -1592.123535
vt 0.375000 0.000000
vt 0.625000 0.000000
vt 0.375000 0.250000
vt 0.625000 0.250000
vt 0.375000 0.500000
vt 0.625000 0.500000
vt 0.375000 0.750000
vt 0.625000 0.750000
vt 0.375000 1.000000
vt 0.625000 1.000000
vt 0.875000 0.000000
vt 0.875000 0.250000
vt 0.125000 0.000000
vt 0.125000 0.250000
vt 0.328205 0.250000
vt 0.375000 0.296795
vt 0.625000 0.296795
vt 0.671795 0.250000
vt 0.625000 0.953205
vt 0.671795 0.000000
vt 0.328205 0.000000
vt 0.375000 0.953205
vt 0.170394 0.000000
vt 0.375000 0.795394
vt 0.625000 0.795394
vt 0.829606 0.000000
vt 0.625000 0.454606
vt 0.829606 0.250000
vt 0.170394 0.250000
vt 0.375000 0.454606
vn 0.000000 0.000000 1.000000
vn 0.000000 0.000000 1.000000
vn 0.000000 0.000000 1.000000
vn 0.000000 0.000000 1.000000
vn 0.000000 0.997916 0.064520
vn 0.000000 0.997916 0.064520
vn 0.000000 0.997888 0.064963
vn 0.000000 0.997888 0.064963
vn 0.000000 0.000000 -1.000000
vn 0.000000 0.000000 -1.000000
vn 0.000000 0.000000 -1.000000
vn 0.000000 0.000000 -1.000000
vn 0.000000 -0.997888 -0.064963
vn 0.000000 -0.997888 -0.064963
vn 0.000000 -0.997916 -0.064520
vn 0.000000 -0.997916 -0.064520
vn 1.000000 0.000000 -0.000000
vn 1.000000 0.000000 -0.000000
vn 1.000000 0.000000 -0.000000
vn 1.000000 0.000000 -0.000000
vn -1.000000 0.000000 -0.000000
vn -1.000000 0.000000 -0.000000
vn -1.000000 0.000000 -0.000000
vn -1.000000 0.000000 -0.000000
vn 0.000000 1.000000 -0.000000
vn 0.000000 1.000000 -0.000000
vn 1.000000 0.000000 0.000000
vn 1.000000 0.000000 0.000000
vn 0.000000 -1.000000 0.000000
vn 0.000000 -1.000000 0.000000
vn -1.000000 0.000000 0.000000
vn -1.000000 0.000000 0.000000
vn 0.000000 -1.000000 0.000000
vn 0.000000 -1.000000 0.000000
vn 1.000000 0.000000 0.000000
vn 1.000000 0.000000 0.000000
vn 0.000000 1.000000 0.000000
vn 0.000000 1.000000 0.000000
vn -1.000000 0.000000 0.000000
vn -1.000000 0.000000 0.000000
s off
g pCube1144
usemtl initialShadingGroup
f 1/1/1 2/2/2 4/4/3 3/3/4
s 1
f 9/16/5 10/17/6 15/27/7 16/30/8
s off
f 5/5/9 6/6/10 8/8/11 7/7/12
s 2
f 13/24/13 14/25/14 11/19/15 12/22/16
s 3
f 10/18/17 11/20/18 14/26/19 15/28/20
s 4
f 16/29/21 13/23/22 12/21/23 9/15/24
s 1
f 3/3/25 4/4/26 10/17/6 9/16/5
s 3
f 2/2/27 11/20/18 10/18/17 4/4/28
s 2
f 12/22/16 11/19/15 2/10/29 1/9/30
s 4
f 9/15/24 12/21/23 1/1/31 3/3/32
s 2
f 7/7/33 8/8/34 14/25/14 13/24/13
s 3
f 15/28/20 14/26/19 8/11/35 6/12/36
s 1
f 16/30/8 15/27/7 6/6/37 5/5/38
s 4
f 7/13/39 13/23/22 16/29/21 5/14/40
