# This file uses meters as units for non-parametric coordinates.

mtllib 00_PL_Track_Corner_Middle.mtl
g default
v 99.003418 -30.208557 149.999969
v 129.003418 -30.208557 149.999969
v 99.003418 -0.208557 149.999969
v 129.003418 -0.208557 149.999969
v 99.003418 -0.208557 -150.000031
v 129.003418 -0.208557 -150.000031
v 99.003418 -30.208557 -150.000031
v 129.003418 -30.208557 -150.000031
v -151.236572 0.208679 47.122864
v 148.763428 0.208679 47.122864
v -151.236572 30.208679 47.122864
v 148.763428 30.208679 47.122864
v -151.236572 30.208679 -39.770691
v 148.763428 30.208679 -39.770691
v -151.236572 0.208679 -39.770691
v 148.763428 0.208679 -39.770691
v -148.763184 0.208679 148.393814
v 151.236816 0.208679 148.393814
v -148.763184 30.208679 148.393814
v 151.236816 30.208679 148.393814
v -148.763184 30.208679 61.500015
v 151.236816 30.208679 61.500015
v -148.763184 0.208679 61.500015
v 151.236816 0.208679 61.500015
v -148.763184 0.208679 -54.385254
v 151.236816 0.208679 -54.385254
v -148.763184 30.208679 -54.385254
v 151.236816 30.208679 -54.385254
v -148.763184 30.208679 -141.279053
v 151.236816 30.208679 -141.279053
v -148.763184 0.208679 -141.279053
v 151.236816 0.208679 -141.279053
v -124.172607 -30.208557 149.999969
v -94.172607 -30.208557 149.999969
v -124.172607 -0.208557 149.999969
v -94.172607 -0.208557 149.999969
v -124.172607 -0.208557 -150.000031
v -94.172607 -0.208557 -150.000031
v -124.172607 -30.208557 -150.000031
v -94.172607 -30.208557 -150.000031
vt 0.051722 0.872380
vt 0.051732 0.867097
vt 0.057014 0.867107
vt 0.057004 0.872389
vt 0.062286 0.872398
vt 0.062196 0.925220
vt 0.056914 0.925211
vt 0.056906 0.930493
vt 0.051623 0.930485
vt 0.051631 0.925202
vt 0.046348 0.925193
vt 0.046440 0.872371
vt 0.067568 0.872407
vt 0.067478 0.925229
vt 0.661643 0.950048
vt 0.950721 0.951350
vt 0.950589 0.980267
vt 0.661510 0.978947
vt 0.662642 0.728417
vt 0.951720 0.729727
vt 0.951284 0.826082
vt 0.662205 0.824781
vt 0.951155 0.854985
vt 0.662075 0.853694
vt 0.980066 0.855120
vt 0.979626 0.951480
vt 0.632734 0.949921
vt 0.633168 0.853561
vt 0.661643 0.950048
vt 0.950721 0.951350
vt 0.950589 0.980267
vt 0.661510 0.978947
vt 0.662642 0.728417
vt 0.951720 0.729727
vt 0.951284 0.826082
vt 0.662205 0.824781
vt 0.951155 0.854985
vt 0.662075 0.853694
vt 0.980066 0.855120
vt 0.979626 0.951480
vt 0.632734 0.949921
vt 0.633168 0.853561
vt 0.661643 0.950048
vt 0.950721 0.951350
vt 0.950589 0.980267
vt 0.661510 0.978947
vt 0.662642 0.728417
vt 0.951720 0.729727
vt 0.951284 0.826082
vt 0.662205 0.824781
vt 0.951155 0.854985
vt 0.662075 0.853694
vt 0.980066 0.855120
vt 0.979626 0.951480
vt 0.632734 0.949921
vt 0.633168 0.853561
vt 0.051722 0.872380
vt 0.051732 0.867097
vt 0.057014 0.867107
vt 0.057004 0.872389
vt 0.062286 0.872398
vt 0.062196 0.925220
vt 0.056914 0.925211
vt 0.056906 0.930493
vt 0.051623 0.930485
vt 0.051631 0.925202
vt 0.046348 0.925193
vt 0.046440 0.872371
vt 0.067568 0.872407
vt 0.067478 0.925229
vn 0.000000 0.000000 1.000000
vn 0.000000 0.000000 1.000000
vn 0.000000 0.000000 1.000000
vn 0.000000 0.000000 1.000000
vn 0.000000 1.000000 0.000000
vn 0.000000 1.000000 0.000000
vn 0.000000 1.000000 0.000000
vn 0.000000 1.000000 0.000000
vn 0.000000 0.000000 -1.000000
vn 0.000000 0.000000 -1.000000
vn 0.000000 0.000000 -1.000000
vn 0.000000 0.000000 -1.000000
vn 0.000000 -1.000000 0.000000
vn 0.000000 -1.000000 0.000000
vn 0.000000 -1.000000 0.000000
vn 0.000000 -1.000000 0.000000
vn 1.000000 0.000000 0.000000
vn 1.000000 0.000000 0.000000
vn 1.000000 0.000000 0.000000
vn 1.000000 0.000000 0.000000
vn -1.000000 0.000000 0.000000
vn -1.000000 0.000000 0.000000
vn -1.000000 0.000000 0.000000
vn -1.000000 0.000000 0.000000
vn 0.000000 0.000000 1.000000
vn 0.000000 0.000000 1.000000
vn 0.000000 0.000000 1.000000
vn 0.000000 0.000000 1.000000
vn 0.000000 1.000000 0.000000
vn 0.000000 1.000000 0.000000
vn 0.000000 1.000000 0.000000
vn 0.000000 1.000000 0.000000
vn 0.000000 0.000000 -1.000000
vn 0.000000 0.000000 -1.000000
vn 0.000000 0.000000 -1.000000
vn 0.000000 0.000000 -1.000000
vn 0.000000 -1.000000 0.000000
vn 0.000000 -1.000000 0.000000
vn 0.000000 -1.000000 0.000000
vn 0.000000 -1.000000 0.000000
vn 1.000000 0.000000 0.000000
vn 1.000000 0.000000 0.000000
vn 1.000000 0.000000 0.000000
vn 1.000000 0.000000 0.000000
vn -1.000000 0.000000 0.000000
vn -1.000000 0.000000 0.000000
vn -1.000000 0.000000 0.000000
vn -1.000000 0.000000 0.000000
vn 0.000000 0.000000 1.000000
vn 0.000000 0.000000 1.000000
vn 0.000000 0.000000 1.000000
vn 0.000000 0.000000 1.000000
vn 0.000000 1.000000 0.000000
vn 0.000000 1.000000 0.000000
vn 0.000000 1.000000 0.000000
vn 0.000000 1.000000 0.000000
vn 0.000000 0.000000 -1.000000
vn 0.000000 0.000000 -1.000000
vn 0.000000 0.000000 -1.000000
vn 0.000000 0.000000 -1.000000
vn 0.000000 -1.000000 0.000000
vn 0.000000 -1.000000 0.000000
vn 0.000000 -1.000000 0.000000
vn 0.000000 -1.000000 0.000000
vn 1.000000 0.000000 0.000000
vn 1.000000 0.000000 0.000000
vn 1.000000 0.000000 0.000000
vn 1.000000 0.000000 0.000000
vn -1.000000 0.000000 0.000000
vn -1.000000 0.000000 0.000000
vn -1.000000 0.000000 0.000000
vn -1.000000 0.000000 0.000000
vn 0.000000 0.000000 1.000000
vn 0.000000 0.000000 1.000000
vn 0.000000 0.000000 1.000000
vn 0.000000 0.000000 1.000000
vn 0.000000 1.000000 0.000000
vn 0.000000 1.000000 0.000000
vn 0.000000 1.000000 0.000000
vn 0.000000 1.000000 0.000000
vn 0.000000 0.000000 -1.000000
vn 0.000000 0.000000 -1.000000
vn 0.000000 0.000000 -1.000000
vn 0.000000 0.000000 -1.000000
vn 0.000000 -1.000000 0.000000
vn 0.000000 -1.000000 0.000000
vn 0.000000 -1.000000 0.000000
vn 0.000000 -1.000000 0.000000
vn 1.000000 0.000000 0.000000
vn 1.000000 0.000000 0.000000
vn 1.000000 0.000000 0.000000
vn 1.000000 0.000000 0.000000
vn -1.000000 0.000000 0.000000
vn -1.000000 0.000000 0.000000
vn -1.000000 0.000000 0.000000
vn -1.000000 0.000000 0.000000
vn 0.000000 0.000000 1.000000
vn 0.000000 0.000000 1.000000
vn 0.000000 0.000000 1.000000
vn 0.000000 0.000000 1.000000
vn 0.000000 1.000000 0.000000
vn 0.000000 1.000000 0.000000
vn 0.000000 1.000000 0.000000
vn 0.000000 1.000000 0.000000
vn 0.000000 0.000000 -1.000000
vn 0.000000 0.000000 -1.000000
vn 0.000000 0.000000 -1.000000
vn 0.000000 0.000000 -1.000000
vn 0.000000 -1.000000 0.000000
vn 0.000000 -1.000000 0.000000
vn 0.000000 -1.000000 0.000000
vn 0.000000 -1.000000 0.000000
vn 1.000000 0.000000 0.000000
vn 1.000000 0.000000 0.000000
vn 1.000000 0.000000 0.000000
vn 1.000000 0.000000 0.000000
vn -1.000000 0.000000 0.000000
vn -1.000000 0.000000 0.000000
vn -1.000000 0.000000 0.000000
vn -1.000000 0.000000 0.000000
s off
g pCube658
usemtl lambert9SG
f 1/1/1 2/2/2 4/3/3 3/4/4
f 3/4/5 4/5/6 6/6/7 5/7/8
f 5/7/9 6/8/10 8/9/11 7/10/12
f 7/10/13 8/11/14 2/12/15 1/1/16
f 2/13/17 8/14/18 6/6/19 4/5/20
f 7/10/21 1/1/22 3/4/23 5/7/24
usemtl lambert6SG
f 9/15/25 10/16/26 12/17/27 11/18/28
f 11/19/29 12/20/30 14/21/31 13/22/32
f 13/22/33 14/21/34 16/23/35 15/24/36
f 15/24/37 16/23/38 10/16/39 9/15/40
f 10/16/41 16/23/42 14/25/43 12/26/44
f 15/24/45 9/15/46 11/27/47 13/28/48
f 17/29/49 18/30/50 20/31/51 19/32/52
f 19/33/53 20/34/54 22/35/55 21/36/56
f 21/36/57 22/35/58 24/37/59 23/38/60
f 23/38/61 24/37/62 18/30/63 17/29/64
f 18/30/65 24/37/66 22/39/67 20/40/68
f 23/38/69 17/29/70 19/41/71 21/42/72
f 25/43/73 26/44/74 28/45/75 27/46/76
f 27/47/77 28/48/78 30/49/79 29/50/80
f 29/50/81 30/49/82 32/51/83 31/52/84
f 31/52/85 32/51/86 26/44/87 25/43/88
f 26/44/89 32/51/90 30/53/91 28/54/92
f 31/52/93 25/43/94 27/55/95 29/56/96
usemtl lambert9SG
f 33/57/97 34/58/98 36/59/99 35/60/100
f 35/60/101 36/61/102 38/62/103 37/63/104
f 37/63/105 38/64/106 40/65/107 39/66/108
f 39/66/109 40/67/110 34/68/111 33/57/112
f 34/69/113 40/70/114 38/62/115 36/61/116
f 39/66/117 33/57/118 35/60/119 37/63/120
