# This file uses meters as units for non-parametric coordinates.

mtllib 00_PL_Track_Corner_SideV2.mtl
g default
v 33.155273 -363.311157 109.112183
v 13.155273 -363.311157 94.581329
v -11.565918 -363.311157 94.581329
v -31.565918 -363.311157 109.112183
v -39.205322 -363.311157 132.623596
v -31.565918 -363.311157 156.135010
v -11.565918 -363.311157 170.665863
v 13.155273 -363.311157 170.665863
v 33.155273 -363.311157 156.135010
v 40.794678 -363.311157 132.623596
v 33.155273 363.311218 109.112183
v 13.155273 363.311218 94.581329
v -11.565918 363.311218 94.581329
v -31.565918 363.311218 109.112183
v -39.205322 363.311218 132.623596
v -31.565918 363.311218 156.135010
v -11.565918 363.311218 170.665863
v 13.155273 363.311218 170.665863
v 33.155273 363.311218 156.135010
v 40.794678 363.311218 132.623596
v 0.794678 363.311218 132.623596
v 99.003174 241.500305 129.334167
v 129.003174 241.500305 129.334167
v 99.003174 271.500305 129.334167
v 129.003174 271.500305 129.334167
v 99.003174 271.500305 -170.665833
v 129.003174 271.500305 -170.665833
v 99.003174 241.500305 -170.665833
v 129.003174 241.500305 -170.665833
v -151.236816 271.917542 26.457031
v 148.763184 271.917542 26.457031
v -151.236816 301.917542 26.457031
v 148.763184 301.917542 26.457031
v -151.236816 301.917542 -60.436768
v 148.763184 301.917542 -60.436768
v -151.236816 271.917542 -60.436768
v 148.763184 271.917542 -60.436768
v -148.763184 271.917542 127.727997
v 151.236816 271.917542 127.727997
v -148.763184 301.917542 127.727997
v 151.236816 301.917542 127.727997
v -148.763184 301.917542 40.834198
v 151.236816 301.917542 40.834198
v -148.763184 271.917542 40.834198
v 151.236816 271.917542 40.834198
v -148.763184 271.917542 -75.051086
v 151.236816 271.917542 -75.051086
v -148.763184 301.917542 -75.051086
v 151.236816 301.917542 -75.051086
v -148.763184 301.917542 -161.944885
v 151.236816 301.917542 -161.944885
v -148.763184 271.917542 -161.944885
v 151.236816 271.917542 -161.944885
v -124.172852 241.500305 129.334167
v -94.172852 241.500305 129.334167
v -124.172852 271.500305 129.334167
v -94.172852 271.500305 129.334167
v -124.172852 271.500305 -170.665833
v -94.172852 271.500305 -170.665833
v -124.172852 241.500305 -170.665833
v -94.172852 241.500305 -170.665833
vt 0.456471 0.211192
vt 0.456488 0.195494
vt 0.917355 0.196015
vt 0.917339 0.211676
vt 0.456506 0.179793
vt 0.917374 0.180356
vt 0.456525 0.164096
vt 0.917392 0.164693
vt 0.456549 0.148393
vt 0.917411 0.149037
vt 0.456576 0.132714
vt 0.917447 0.133358
vt 0.456600 0.117062
vt 0.917467 0.117650
vt 0.456619 0.101419
vt 0.917486 0.101934
vt 0.456635 0.085773
vt 0.917503 0.086220
vt 0.456649 0.070124
vt 0.917517 0.070510
vt 0.456661 0.054458
vt 0.917529 0.054815
vt 0.965659 0.149196
vt 0.956400 0.161849
vt 0.941558 0.141273
vt 0.941473 0.166643
vt 0.926580 0.161750
vt 0.926709 0.120701
vt 0.941639 0.115903
vt 0.956537 0.120798
vt 0.965713 0.133515
vt 0.051722 0.872380
vt 0.051732 0.867097
vt 0.057014 0.867107
vt 0.057004 0.872389
vt 0.062286 0.872398
vt 0.062196 0.925220
vt 0.056914 0.925211
vt 0.056906 0.930493
vt 0.051623 0.930485
vt 0.051631 0.925202
vt 0.046348 0.925193
vt 0.046440 0.872371
vt 0.067568 0.872407
vt 0.067478 0.925229
vt 0.661643 0.950048
vt 0.950721 0.951350
vt 0.950589 0.980267
vt 0.661510 0.978947
vt 0.662642 0.728417
vt 0.951720 0.729727
vt 0.951284 0.826082
vt 0.662205 0.824781
vt 0.951155 0.854985
vt 0.662075 0.853694
vt 0.980066 0.855120
vt 0.979626 0.951480
vt 0.632734 0.949921
vt 0.633168 0.853561
vt 0.661643 0.950048
vt 0.950721 0.951350
vt 0.950589 0.980267
vt 0.661510 0.978947
vt 0.662642 0.728417
vt 0.951720 0.729727
vt 0.951284 0.826082
vt 0.662205 0.824781
vt 0.951155 0.854985
vt 0.662075 0.853694
vt 0.980066 0.855120
vt 0.979626 0.951480
vt 0.632734 0.949921
vt 0.633168 0.853561
vt 0.661643 0.950048
vt 0.950721 0.951350
vt 0.950589 0.980267
vt 0.661510 0.978947
vt 0.662642 0.728417
vt 0.951720 0.729727
vt 0.951284 0.826082
vt 0.662205 0.824781
vt 0.951155 0.854985
vt 0.662075 0.853694
vt 0.980066 0.855120
vt 0.979626 0.951480
vt 0.632734 0.949921
vt 0.633168 0.853561
vt 0.051722 0.872380
vt 0.051732 0.867097
vt 0.057014 0.867107
vt 0.057004 0.872389
vt 0.062286 0.872398
vt 0.062196 0.925220
vt 0.056914 0.925211
vt 0.056906 0.930493
vt 0.051623 0.930485
vt 0.051631 0.925202
vt 0.046348 0.925193
vt 0.046440 0.872371
vt 0.067568 0.872407
vt 0.067478 0.925229
vn 0.587785 0.000000 -0.809017
vn 0.587785 0.000000 -0.809017
vn 0.587785 0.000000 -0.809017
vn 0.587785 0.000000 -0.809017
vn 0.000000 0.000000 -1.000000
vn 0.000000 0.000000 -1.000000
vn 0.000000 0.000000 -1.000000
vn 0.000000 0.000000 -1.000000
vn -0.587785 0.000000 -0.809017
vn -0.587785 0.000000 -0.809017
vn -0.587785 0.000000 -0.809017
vn -0.587785 0.000000 -0.809017
vn -0.951056 0.000000 -0.309020
vn -0.951056 0.000000 -0.309020
vn -0.951056 0.000000 -0.309020
vn -0.951056 0.000000 -0.309020
vn -0.951056 0.000000 0.309020
vn -0.951056 0.000000 0.309020
vn -0.951056 0.000000 0.309020
vn -0.951056 0.000000 0.309020
vn -0.587785 0.000000 0.809017
vn -0.587785 0.000000 0.809017
vn -0.587785 0.000000 0.809017
vn -0.587785 0.000000 0.809017
vn 0.000000 0.000000 1.000000
vn 0.000000 0.000000 1.000000
vn 0.000000 0.000000 1.000000
vn 0.000000 0.000000 1.000000
vn 0.587785 0.000000 0.809017
vn 0.587785 0.000000 0.809017
vn 0.587785 0.000000 0.809017
vn 0.587785 0.000000 0.809017
vn 0.951056 0.000000 0.309020
vn 0.951056 0.000000 0.309020
vn 0.951056 0.000000 0.309020
vn 0.951056 0.000000 0.309020
vn 0.951056 0.000000 -0.309020
vn 0.951056 0.000000 -0.309020
vn 0.951056 0.000000 -0.309020
vn 0.951056 0.000000 -0.309020
vn 0.000000 1.000000 0.000000
vn 0.000000 1.000000 0.000000
vn 0.000000 1.000000 0.000000
vn 0.000000 1.000000 0.000000
vn 0.000000 1.000000 0.000000
vn 0.000000 1.000000 0.000000
vn 0.000000 1.000000 0.000000
vn 0.000000 1.000000 0.000000
vn 0.000000 1.000000 0.000000
vn 0.000000 1.000000 0.000000
vn 0.000000 1.000000 0.000000
vn 0.000000 0.000000 1.000000
vn 0.000000 0.000000 1.000000
vn 0.000000 0.000000 1.000000
vn 0.000000 0.000000 1.000000
vn 0.000000 1.000000 0.000000
vn 0.000000 1.000000 0.000000
vn 0.000000 1.000000 0.000000
vn 0.000000 1.000000 0.000000
vn 0.000000 0.000000 -1.000000
vn 0.000000 0.000000 -1.000000
vn 0.000000 0.000000 -1.000000
vn 0.000000 0.000000 -1.000000
vn 0.000000 -1.000000 0.000000
vn 0.000000 -1.000000 0.000000
vn 0.000000 -1.000000 0.000000
vn 0.000000 -1.000000 0.000000
vn 1.000000 0.000000 0.000000
vn 1.000000 0.000000 0.000000
vn 1.000000 0.000000 0.000000
vn 1.000000 0.000000 0.000000
vn -1.000000 0.000000 0.000000
vn -1.000000 0.000000 0.000000
vn -1.000000 0.000000 0.000000
vn -1.000000 0.000000 0.000000
vn 0.000000 0.000000 1.000000
vn 0.000000 0.000000 1.000000
vn 0.000000 0.000000 1.000000
vn 0.000000 0.000000 1.000000
vn 0.000000 1.000000 0.000000
vn 0.000000 1.000000 0.000000
vn 0.000000 1.000000 0.000000
vn 0.000000 1.000000 0.000000
vn 0.000000 0.000000 -1.000000
vn 0.000000 0.000000 -1.000000
vn 0.000000 0.000000 -1.000000
vn 0.000000 0.000000 -1.000000
vn 0.000000 -1.000000 0.000000
vn 0.000000 -1.000000 0.000000
vn 0.000000 -1.000000 0.000000
vn 0.000000 -1.000000 0.000000
vn 1.000000 0.000000 0.000000
vn 1.000000 0.000000 0.000000
vn 1.000000 0.000000 0.000000
vn 1.000000 0.000000 0.000000
vn -1.000000 0.000000 0.000000
vn -1.000000 0.000000 0.000000
vn -1.000000 0.000000 0.000000
vn -1.000000 0.000000 0.000000
vn 0.000000 0.000000 1.000000
vn 0.000000 0.000000 1.000000
vn 0.000000 0.000000 1.000000
vn 0.000000 0.000000 1.000000
vn 0.000000 1.000000 0.000000
vn 0.000000 1.000000 0.000000
vn 0.000000 1.000000 0.000000
vn 0.000000 1.000000 0.000000
vn 0.000000 0.000000 -1.000000
vn 0.000000 0.000000 -1.000000
vn 0.000000 0.000000 -1.000000
vn 0.000000 0.000000 -1.000000
vn 0.000000 -1.000000 0.000000
vn 0.000000 -1.000000 0.000000
vn 0.000000 -1.000000 0.000000
vn 0.000000 -1.000000 0.000000
vn 1.000000 0.000000 0.000000
vn 1.000000 0.000000 0.000000
vn 1.000000 0.000000 0.000000
vn 1.000000 0.000000 0.000000
vn -1.000000 0.000000 0.000000
vn -1.000000 0.000000 0.000000
vn -1.000000 0.000000 0.000000
vn -1.000000 0.000000 0.000000
vn 0.000000 0.000000 1.000000
vn 0.000000 0.000000 1.000000
vn 0.000000 0.000000 1.000000
vn 0.000000 0.000000 1.000000
vn 0.000000 1.000000 0.000000
vn 0.000000 1.000000 0.000000
vn 0.000000 1.000000 0.000000
vn 0.000000 1.000000 0.000000
vn 0.000000 0.000000 -1.000000
vn 0.000000 0.000000 -1.000000
vn 0.000000 0.000000 -1.000000
vn 0.000000 0.000000 -1.000000
vn 0.000000 -1.000000 0.000000
vn 0.000000 -1.000000 0.000000
vn 0.000000 -1.000000 0.000000
vn 0.000000 -1.000000 0.000000
vn 1.000000 0.000000 0.000000
vn 1.000000 0.000000 0.000000
vn 1.000000 0.000000 0.000000
vn 1.000000 0.000000 0.000000
vn -1.000000 0.000000 0.000000
vn -1.000000 0.000000 0.000000
vn -1.000000 0.000000 0.000000
vn -1.000000 0.000000 0.000000
vn 0.000000 0.000000 1.000000
vn 0.000000 0.000000 1.000000
vn 0.000000 0.000000 1.000000
vn 0.000000 0.000000 1.000000
vn 0.000000 1.000000 0.000000
vn 0.000000 1.000000 0.000000
vn 0.000000 1.000000 0.000000
vn 0.000000 1.000000 0.000000
vn 0.000000 0.000000 -1.000000
vn 0.000000 0.000000 -1.000000
vn 0.000000 0.000000 -1.000000
vn 0.000000 0.000000 -1.000000
vn 0.000000 -1.000000 0.000000
vn 0.000000 -1.000000 0.000000
vn 0.000000 -1.000000 0.000000
vn 0.000000 -1.000000 0.000000
vn 1.000000 0.000000 0.000000
vn 1.000000 0.000000 0.000000
vn 1.000000 0.000000 0.000000
vn 1.000000 0.000000 0.000000
vn -1.000000 0.000000 0.000000
vn -1.000000 0.000000 0.000000
vn -1.000000 0.000000 0.000000
vn -1.000000 0.000000 0.000000
s off
g group3
usemtl lambert8SG
f 1/1/1 2/2/2 12/3/3 11/4/4
f 2/2/5 3/5/6 13/6/7 12/3/8
f 3/5/9 4/7/10 14/8/11 13/6/12
f 4/7/13 5/9/14 15/10/15 14/8/16
f 5/9/17 6/11/18 16/12/19 15/10/20
f 6/11/21 7/13/22 17/14/23 16/12/24
f 7/13/25 8/15/26 18/16/27 17/14/28
f 8/15/29 9/17/30 19/18/31 18/16/32
f 9/17/33 10/19/34 20/20/35 19/18/36
f 10/19/37 1/21/38 11/22/39 20/20/40
s 1
f 11/23/41 12/24/42 21/25/43
f 12/24/42 13/26/44 21/25/43
f 13/26/44 14/27/45 21/25/43
f 14/27/45 15/10/46 21/25/43
f 15/10/46 16/12/47 21/25/43
f 16/12/47 17/28/48 21/25/43
f 17/28/48 18/29/49 21/25/43
f 18/29/49 19/30/50 21/25/43
f 19/30/50 20/31/51 21/25/43
f 20/31/51 11/23/41 21/25/43
s off
usemtl lambert9SG
f 22/32/52 23/33/53 25/34/54 24/35/55
f 24/35/56 25/36/57 27/37/58 26/38/59
f 26/38/60 27/39/61 29/40/62 28/41/63
f 28/41/64 29/42/65 23/43/66 22/32/67
f 23/44/68 29/45/69 27/37/70 25/36/71
f 28/41/72 22/32/73 24/35/74 26/38/75
usemtl lambert6SG
f 30/46/76 31/47/77 33/48/78 32/49/79
f 32/50/80 33/51/81 35/52/82 34/53/83
f 34/53/84 35/52/85 37/54/86 36/55/87
f 36/55/88 37/54/89 31/47/90 30/46/91
f 31/47/92 37/54/93 35/56/94 33/57/95
f 36/55/96 30/46/97 32/58/98 34/59/99
f 38/60/100 39/61/101 41/62/102 40/63/103
f 40/64/104 41/65/105 43/66/106 42/67/107
f 42/67/108 43/66/109 45/68/110 44/69/111
f 44/69/112 45/68/113 39/61/114 38/60/115
f 39/61/116 45/68/117 43/70/118 41/71/119
f 44/69/120 38/60/121 40/72/122 42/73/123
f 46/74/124 47/75/125 49/76/126 48/77/127
f 48/78/128 49/79/129 51/80/130 50/81/131
f 50/81/132 51/80/133 53/82/134 52/83/135
f 52/83/136 53/82/137 47/75/138 46/74/139
f 47/75/140 53/82/141 51/84/142 49/85/143
f 52/83/144 46/74/145 48/86/146 50/87/147
usemtl lambert9SG
f 54/88/148 55/89/149 57/90/150 56/91/151
f 56/91/152 57/92/153 59/93/154 58/94/155
f 58/94/156 59/95/157 61/96/158 60/97/159
f 60/97/160 61/98/161 55/99/162 54/88/163
f 55/100/164 61/101/165 59/93/166 57/92/167
f 60/97/168 54/88/169 56/91/170 58/94/171
