# This file uses meters as units for non-parametric coordinates.

mtllib 00_PL_Water_Drop.mtl
g default
v 6.495160 47.593853 -2.983436
v 3.585961 47.593853 -4.188469
v 0.676770 47.593853 -2.983436
v -0.528262 47.593853 -0.074241
v 0.676770 47.593853 2.834954
v 3.585961 47.593853 4.039987
v 6.495160 47.593853 2.834954
v 7.700191 47.593853 -0.074241
v 5.217372 51.184232 0.435919
v 5.703754 -53.635631 -9.905380
v -4.128860 -52.437192 -14.008324
v -13.961473 -51.238699 -9.905380
v -18.034276 -50.742289 -0.000001
v -13.961473 -51.238699 9.905380
v -4.128860 -52.437192 14.008324
v 5.703754 -53.635631 9.905380
v 9.776536 -54.132095 -0.000001
v 14.999513 -46.774901 -18.302757
v -3.168779 -44.560389 -25.884016
v -21.337074 -42.345911 -18.302757
v -28.862643 -41.428651 -0.000001
v -21.337074 -42.345911 18.302757
v -3.168779 -44.560389 25.884013
v 14.999516 -46.774901 18.302757
v 22.525071 -47.692168 -0.000001
v 22.006099 -35.665334 -23.913705
v -1.731920 -32.771978 -33.819083
v -25.469943 -29.878623 -23.913705
v -35.302557 -28.680103 -0.000001
v -25.469943 -29.878623 23.913705
v -1.731920 -32.771978 33.819080
v 22.006099 -35.665334 23.913705
v 31.838692 -36.863800 -0.000001
v 25.811367 -20.730143 -25.884016
v -0.000002 -18.792214 -36.605510
v -25.811364 -16.854272 -25.884016
v -36.502766 -16.051546 -0.000001
v -25.811364 -16.854272 25.884013
v -0.000002 -18.792214 36.605510
v 25.811367 -20.730143 25.884016
v 36.502766 -21.532856 -0.000001
v -4.466000 -55.203132 -0.000001
v -0.141873 -6.951281 32.320674
v -22.972126 -6.313491 22.854164
v -32.428739 -6.049305 -0.000001
v -22.972126 -6.313491 -22.854166
v -0.141873 -6.951281 -32.320674
v 22.688382 -7.589071 -22.854166
v 32.144985 -7.853257 -0.000001
v 22.688382 -7.589071 22.854166
v -2.659804 15.084334 17.218093
v -14.840048 15.111470 12.172425
v -19.885298 15.122710 -0.008842
v -14.840048 15.111470 -12.190109
v -2.659804 15.084334 -17.235778
v 9.520454 15.057198 -12.190109
v 14.565697 15.045959 -0.008842
v 9.520454 15.057198 12.172425
v -0.282402 33.625867 10.213643
v -7.538143 33.636824 7.208033
v -10.543582 33.641347 -0.048125
v -7.538143 33.636824 -7.304281
v -0.282402 33.625867 -10.309893
v 6.973351 33.614911 -7.304281
v 9.978787 33.610374 -0.048125
v 6.973351 33.614911 7.208033
vt 0.599993 0.132786
vt 0.576738 0.163154
vt 0.506407 0.063233
vt 0.544096 0.183167
vt 0.506677 0.190579
vt 0.469268 0.182843
vt 0.436587 0.162637
vt 0.413144 0.132256
vt 0.400310 0.097391
vt 0.612525 0.097847
vt 0.799974 0.238682
vt 0.793202 0.268551
vt 0.750413 0.271840
vt 0.767547 0.218678
vt 0.642960 0.381819
vt 0.612432 0.380189
vt 0.602008 0.343394
vt 0.657724 0.341586
vt 0.587314 0.397621
vt 0.553672 0.371178
vt 0.425286 0.397266
vt 0.400236 0.379738
vt 0.410802 0.342982
vt 0.459027 0.370954
vt 0.369703 0.381250
vt 0.355094 0.340961
vt 0.220308 0.268622
vt 0.213434 0.238776
vt 0.245791 0.218660
vt 0.263106 0.271764
vt 0.189774 0.219341
vt 0.206035 0.179449
vt 0.823567 0.219166
vt 0.807170 0.179331
vt 0.706398 0.265422
vt 0.736825 0.199744
vt 0.592040 0.308241
vt 0.663605 0.297704
vt 0.525681 0.337054
vt 0.420906 0.307863
vt 0.487145 0.336943
vt 0.349384 0.297062
vt 0.276449 0.199621
vt 0.307095 0.265196
vt 0.231735 0.142726
vt 0.781347 0.142697
vt 0.665067 0.246407
vt 0.704346 0.179681
vt 0.583338 0.276959
vt 0.657235 0.253151
vt 0.509319 0.300433
vt 0.429732 0.276604
vt 0.503641 0.300398
vt 0.355925 0.252546
vt 0.308862 0.179448
vt 0.348353 0.246040
vt 0.271723 0.111551
vt 0.741258 0.111653
vt 0.634419 0.220650
vt 0.673906 0.164773
vt 0.573133 0.250876
vt 0.506541 0.266178
vt 0.440038 0.250530
vt 0.378880 0.220162
vt 0.339272 0.164438
vt 0.315827 0.099383
vt 0.697115 0.099615
vt 0.833778 0.259512
vt 0.623270 0.418412
vt 0.389251 0.417919
vt 0.179702 0.259723
vt 0.434132 0.165084
vt 0.468025 0.185722
vt 0.506671 0.193795
vt 0.545331 0.186048
vt 0.579192 0.165600
vt 0.603137 0.134147
vt 0.396716 0.097476
vt 0.616124 0.097923
vt 0.410002 0.133625
vt 0.435596 0.163625
vt 0.468766 0.184005
vt 0.506675 0.191877
vt 0.544595 0.184330
vt 0.577729 0.164141
vt 0.601262 0.133336
vt 0.398859 0.097425
vt 0.613978 0.097878
vt 0.411876 0.132809
vn 0.268433 0.712718 -0.648056
vn 0.268433 0.712718 -0.648056
vn 0.268433 0.712718 -0.648056
vn -0.226284 0.806446 -0.546296
vn -0.226284 0.806446 -0.546296
vn -0.226284 0.806446 -0.546296
vn -0.504798 0.837532 -0.209091
vn -0.504798 0.837532 -0.209091
vn -0.504798 0.837532 -0.209091
vn -0.530926 0.818386 0.219914
vn -0.530926 0.818386 0.219914
vn -0.530926 0.818386 0.219913
vn -0.257256 0.740331 0.621071
vn -0.257256 0.740331 0.621071
vn -0.257256 0.740331 0.621071
vn 0.305631 0.601793 0.737858
vn 0.305631 0.601793 0.737858
vn 0.305631 0.601793 0.737858
vn 0.797619 0.504627 0.330387
vn 0.797619 0.504627 0.330387
vn 0.797619 0.504627 0.330387
vn 0.759269 0.569737 -0.314502
vn 0.759269 0.569737 -0.314502
vn 0.759269 0.569737 -0.314502
vn 0.124577 -0.831472 -0.541419
vn 0.124577 -0.831472 -0.541419
vn 0.124577 -0.831472 -0.541419
vn 0.124577 -0.831472 -0.541419
vn -0.320655 -0.777204 -0.541419
vn -0.320655 -0.777204 -0.541419
vn -0.320655 -0.777204 -0.541419
vn -0.320655 -0.777204 -0.541419
vn -0.635479 -0.738831 -0.224264
vn -0.635479 -0.738831 -0.224264
vn -0.635479 -0.738831 -0.224264
vn -0.635479 -0.738831 -0.224264
vn -0.635480 -0.738831 0.224264
vn -0.635480 -0.738831 0.224264
vn -0.635480 -0.738831 0.224264
vn -0.635480 -0.738831 0.224264
vn -0.320655 -0.777204 0.541419
vn -0.320655 -0.777204 0.541419
vn -0.320655 -0.777204 0.541419
vn -0.320655 -0.777204 0.541419
vn 0.124577 -0.831473 0.541418
vn 0.124577 -0.831473 0.541418
vn 0.124577 -0.831473 0.541418
vn 0.124577 -0.831473 0.541418
vn 0.439402 -0.869846 0.224263
vn 0.439402 -0.869846 0.224263
vn 0.439402 -0.869846 0.224263
vn 0.439402 -0.869846 0.224263
vn 0.439402 -0.869846 -0.224264
vn 0.439402 -0.869846 -0.224264
vn 0.439402 -0.869846 -0.224264
vn 0.439402 -0.869846 -0.224264
vn 0.259686 -0.560829 -0.786151
vn 0.259686 -0.560829 -0.786151
vn 0.259686 -0.560829 -0.786151
vn 0.259686 -0.560829 -0.786151
vn -0.386798 -0.482032 -0.786151
vn -0.386798 -0.482032 -0.786151
vn -0.386798 -0.482032 -0.786151
vn -0.386798 -0.482032 -0.786151
vn -0.843931 -0.426312 -0.325635
vn -0.843931 -0.426312 -0.325635
vn -0.843931 -0.426312 -0.325635
vn -0.843931 -0.426312 -0.325635
vn -0.843931 -0.426312 0.325634
vn -0.843931 -0.426312 0.325634
vn -0.843931 -0.426312 0.325634
vn -0.843931 -0.426312 0.325634
vn -0.386798 -0.482032 0.786151
vn -0.386798 -0.482032 0.786151
vn -0.386798 -0.482032 0.786151
vn -0.386798 -0.482032 0.786151
vn 0.259686 -0.560829 0.786151
vn 0.259686 -0.560829 0.786151
vn 0.259686 -0.560829 0.786151
vn 0.259686 -0.560829 0.786151
vn 0.716821 -0.616547 0.325634
vn 0.716821 -0.616547 0.325634
vn 0.716821 -0.616547 0.325634
vn 0.716821 -0.616547 0.325634
vn 0.716820 -0.616547 -0.325634
vn 0.716820 -0.616547 -0.325634
vn 0.716820 -0.616547 -0.325634
vn 0.716820 -0.616547 -0.325634
vn 0.356919 -0.217788 -0.908393
vn 0.356919 -0.217788 -0.908393
vn 0.356919 -0.217788 -0.908393
vn 0.356919 -0.217788 -0.908393
vn -0.392136 -0.139962 -0.909197
vn -0.392136 -0.139962 -0.909197
vn -0.392136 -0.139962 -0.909197
vn -0.392136 -0.139962 -0.909197
vn -0.922447 -0.084376 -0.376793
vn -0.922447 -0.084376 -0.376793
vn -0.922447 -0.084376 -0.376793
vn -0.922447 -0.084376 -0.376793
vn -0.922447 -0.084375 0.376793
vn -0.922447 -0.084375 0.376793
vn -0.922447 -0.084375 0.376793
vn -0.922447 -0.084375 0.376793
vn -0.392136 -0.139962 0.909197
vn -0.392136 -0.139962 0.909198
vn -0.392136 -0.139962 0.909198
vn -0.392136 -0.139962 0.909197
vn 0.356919 -0.217788 0.908393
vn 0.356919 -0.217788 0.908393
vn 0.356919 -0.217788 0.908393
vn 0.356919 -0.217788 0.908393
vn 0.885706 -0.272323 0.375985
vn 0.885706 -0.272323 0.375985
vn 0.885706 -0.272323 0.375985
vn 0.885706 -0.272323 0.375985
vn 0.885706 -0.272323 -0.375985
vn 0.885706 -0.272323 -0.375985
vn 0.885706 -0.272323 -0.375985
vn 0.885706 -0.272323 -0.375985
vn 0.378774 0.305313 -0.873679
vn 0.378774 0.305313 -0.873679
vn 0.353179 0.450607 -0.819889
vn 0.355568 0.439295 -0.824980
vn -0.347101 0.328866 -0.878276
vn -0.347101 0.328866 -0.878276
vn -0.333486 0.436437 -0.835649
vn -0.334820 0.427524 -0.839713
vn -0.864767 0.344855 -0.365038
vn -0.864767 0.344855 -0.365038
vn -0.836211 0.421074 -0.351351
vn -0.837379 0.418280 -0.351905
vn -0.864767 0.344855 0.365038
vn -0.864767 0.344855 0.365038
vn -0.837332 0.418391 0.351887
vn -0.836148 0.421220 0.351326
vn -0.347102 0.328866 0.878276
vn -0.347102 0.328865 0.878276
vn -0.334766 0.427798 0.839595
vn -0.333425 0.436748 0.835511
vn 0.378774 0.305313 0.873678
vn 0.378774 0.305313 0.873679
vn 0.355520 0.439567 0.824855
vn 0.353132 0.450873 0.819763
vn 0.887158 0.288162 0.360436
vn 0.887158 0.288162 0.360436
vn 0.827584 0.449026 0.336870
vn 0.825139 0.454222 0.335898
vn 0.887157 0.288162 -0.360437
vn 0.887157 0.288162 -0.360436
vn 0.825175 0.454145 -0.335914
vn 0.827646 0.448891 -0.336896
vn -0.038324 -0.980162 -0.194456
vn -0.038324 -0.980162 -0.194456
vn -0.038324 -0.980162 -0.194456
vn -0.198238 -0.960671 -0.194456
vn -0.198238 -0.960671 -0.194456
vn -0.198238 -0.960671 -0.194456
vn -0.311309 -0.946889 -0.080547
vn -0.311309 -0.946889 -0.080547
vn -0.311309 -0.946889 -0.080547
vn -0.311309 -0.946889 0.080547
vn -0.311309 -0.946889 0.080547
vn -0.311309 -0.946889 0.080547
vn -0.198238 -0.960671 0.194456
vn -0.198238 -0.960671 0.194456
vn -0.198238 -0.960671 0.194456
vn -0.038324 -0.980162 0.194456
vn -0.038324 -0.980162 0.194456
vn -0.038324 -0.980162 0.194456
vn 0.074744 -0.993944 0.080549
vn 0.074744 -0.993944 0.080549
vn 0.074744 -0.993944 0.080549
vn 0.074745 -0.993944 -0.080549
vn 0.074745 -0.993944 -0.080549
vn 0.074745 -0.993944 -0.080549
vn -0.330230 0.476781 0.814633
vn -0.329883 0.478108 0.813996
vn -0.817785 0.463340 0.341385
vn -0.817702 0.463504 0.341360
vn -0.817916 0.463062 -0.341449
vn -0.818031 0.462834 -0.341484
vn -0.330105 0.477055 -0.814523
vn -0.330474 0.475635 -0.815204
vn 0.339742 0.494717 -0.799894
vn 0.340266 0.491872 -0.801424
vn 0.798895 0.504729 -0.327133
vn 0.799702 0.503219 -0.327487
vn 0.799571 0.503460 0.327435
vn 0.798576 0.505321 0.326998
vn 0.340051 0.492875 0.800899
vn 0.339512 0.495797 0.799323
vn -0.350796 0.396386 0.848422
vn -0.351963 0.389149 0.851284
vn -0.819930 0.460617 0.339922
vn -0.821987 0.456299 0.340776
vn -0.822563 0.455081 -0.341015
vn -0.820407 0.459622 -0.340119
vn -0.352455 0.386122 -0.852458
vn -0.351278 0.393485 -0.849573
vn 0.367357 0.284196 -0.885597
vn 0.367314 0.284411 -0.885546
vn 0.904245 0.205394 -0.374372
vn 0.904745 0.202791 -0.374584
vn 0.904474 0.204199 0.374471
vn 0.903947 0.206928 0.374248
vn 0.366939 0.287735 0.884627
vn 0.366979 0.287554 0.884669
vn -0.339893 0.457424 0.821728
vn -0.339893 0.457424 0.821728
vn -0.769663 0.553024 0.319036
vn -0.769663 0.553024 0.319036
vn -0.770170 0.552194 -0.319248
vn -0.770170 0.552194 -0.319248
vn -0.340373 0.454988 -0.822880
vn -0.340373 0.454988 -0.822880
vn 0.366952 0.286206 -0.885117
vn 0.366952 0.286206 -0.885117
vn 0.913706 0.148198 -0.378389
vn 0.913706 0.148198 -0.378389
vn 0.913514 0.149580 0.378309
vn 0.913514 0.149580 0.378309
vn 0.366606 0.289239 0.884274
vn 0.366606 0.289239 0.884274
s off
g pSphere6
usemtl lambert15SG
f 1/1/1 2/2/2 9/3/3
f 2/2/4 3/4/5 9/3/6
f 3/4/7 4/5/8 9/3/9
f 4/5/10 5/6/11 9/3/12
f 5/6/13 6/7/14 9/3/15
f 6/7/16 7/8/17 9/3/18
f 7/8/19 8/9/20 9/3/21
f 8/10/22 1/1/23 9/3/24
f 10/11/25 11/12/26 19/13/27 18/14/28
f 11/15/29 12/16/30 20/17/31 19/18/32
f 12/16/33 13/19/34 21/20/35 20/17/36
f 13/21/37 14/22/38 22/23/39 21/24/40
f 14/22/41 15/25/42 23/26/43 22/23/44
f 15/27/45 16/28/46 24/29/47 23/30/48
f 16/28/49 17/31/50 25/32/51 24/29/52
f 17/33/53 10/11/54 18/14/55 25/34/56
f 18/14/57 19/13/58 27/35/59 26/36/60
f 19/18/61 20/17/62 28/37/63 27/38/64
f 20/17/65 21/20/66 29/39/67 28/37/68
f 21/24/69 22/23/70 30/40/71 29/41/72
f 22/23/73 23/26/74 31/42/75 30/40/76
f 23/30/77 24/29/78 32/43/79 31/44/80
f 24/29/81 25/32/82 33/45/83 32/43/84
f 25/34/85 18/14/86 26/36/87 33/46/88
f 26/36/89 27/35/90 35/47/91 34/48/92
f 27/38/93 28/37/94 36/49/95 35/50/96
f 28/37/97 29/39/98 37/51/99 36/49/100
f 29/41/101 30/40/102 38/52/103 37/53/104
f 30/40/105 31/42/106 39/54/107 38/52/108
f 31/44/109 32/43/110 40/55/111 39/56/112
f 32/43/113 33/45/114 41/57/115 40/55/116
f 33/46/117 26/36/118 34/48/119 41/58/120
s 1
f 34/48/121 35/47/122 47/59/123 48/60/124
s 2
f 35/50/125 36/49/126 46/61/127 47/59/128
s 3
f 36/49/129 37/51/130 45/62/131 46/61/132
s 4
f 37/53/133 38/52/134 44/63/135 45/62/136
s 5
f 38/52/137 39/54/138 43/64/139 44/63/140
s 6
f 39/56/141 40/55/142 50/65/143 43/64/144
s 7
f 40/55/145 41/57/146 49/66/147 50/65/148
s 8
f 41/58/149 34/48/150 48/60/151 49/67/152
s off
f 11/12/153 10/11/154 42/68/155
f 12/16/156 11/15/157 42/69/158
f 13/19/159 12/16/160 42/69/161
f 14/22/162 13/21/163 42/70/164
f 15/25/165 14/22/166 42/70/167
f 16/28/168 15/27/169 42/71/170
f 17/31/171 16/28/172 42/71/173
f 10/11/174 17/33/175 42/68/176
s 5
f 44/63/140 43/64/139 51/72/177 52/73/178
s 4
f 45/62/136 44/63/135 52/73/179 53/74/180
s 3
f 46/61/132 45/62/131 53/74/181 54/75/182
s 2
f 47/59/128 46/61/127 54/75/183 55/76/184
s 1
f 48/60/124 47/59/123 55/76/185 56/77/186
s 8
f 49/67/152 48/60/151 56/77/187 57/79/188
s 7
f 50/65/148 49/66/147 57/78/189 58/80/190
s 6
f 43/64/144 50/65/143 58/80/191 51/72/192
s 5
f 52/73/178 51/72/177 59/81/193 60/82/194
s 4
f 53/74/180 52/73/179 60/82/195 61/83/196
s 3
f 54/75/182 53/74/181 61/83/197 62/84/198
s 2
f 55/76/184 54/75/183 62/84/199 63/85/200
s 1
f 56/77/186 55/76/185 63/85/201 64/86/202
s 8
f 57/79/188 56/77/187 64/86/203 65/88/204
s 7
f 58/80/190 57/78/189 65/87/205 66/89/206
s 6
f 51/72/192 58/80/191 66/89/207 59/81/208
s 5
f 60/82/194 59/81/193 6/7/209 5/6/210
s 4
f 61/83/196 60/82/195 5/6/211 4/5/212
s 3
f 62/84/198 61/83/197 4/5/213 3/4/214
s 2
f 63/85/200 62/84/199 3/4/215 2/2/216
s 1
f 64/86/202 63/85/201 2/2/217 1/1/218
s 8
f 65/88/204 64/86/203 1/1/219 8/10/220
s 7
f 66/89/206 65/87/205 8/9/221 7/8/222
s 6
f 59/81/208 66/89/207 7/8/223 6/7/224
